<?xml version="1.0" standalone="no"?>
<!DOCTYPE svg PUBLIC "-//W3C//DTD SVG 20010904//EN"
 "http://www.w3.org/TR/2001/REC-SVG-20010904/DTD/svg10.dtd">
<svg version="1.0" xmlns="http://www.w3.org/2000/svg"
 width="94.000000pt" height="67.000000pt" viewBox="0 0 94.000000 67.000000"
 preserveAspectRatio="xMidYMid meet">

<g transform="translate(0.000000,67.000000) scale(0.100000,-0.100000)"
fill="#000000" stroke="none">
<path d="M423 590 c-23 -9 -45 -42 -41 -60 2 -6 -14 -17 -35 -25 -122 -43
-207 -157 -207 -279 l0 -36 190 0 c162 0 190 2 190 15 0 13 -26 15 -175 15
-175 0 -175 0 -175 23 0 37 45 121 85 160 77 75 177 102 270 73 29 -9 53 -12
58 -7 15 15 -1 30 -38 37 -30 5 -35 10 -35 34 0 42 -44 67 -87 50z m52 -50 c0
-18 -33 -26 -47 -12 -6 6 -7 15 -3 22 10 16 50 8 50 -10z"/>
<path d="M623 488 c-20 -54 -28 -90 -28 -138 0 -52 -6 -77 -30 -125 l-30 -60
-217 -3 c-233 -3 -240 -4 -198 -50 20 -22 25 -22 324 -22 292 0 304 1 330 21
50 39 36 50 -64 47 -104 -3 -120 -20 -28 -29 35 -3 -70 -5 -232 -5 -269 0
-278 1 -100 6 107 3 201 9 208 13 16 11 46 71 62 123 9 31 17 40 29 37 33 -8
82 39 106 102 38 104 39 105 17 105 -15 0 -24 -15 -41 -70 -15 -46 -31 -77
-48 -90 -32 -25 -44 -22 -56 14 -7 22 -3 42 22 102 29 70 32 94 11 94 -4 0
-21 -33 -37 -72z"/>
<path d="M681 471 c-25 -68 -26 -81 -7 -81 13 0 56 97 56 126 0 35 -29 8 -49
-45z"/>
<path d="M723 265 l7 -45 -45 0 c-33 0 -45 -4 -45 -15 0 -12 13 -15 60 -15
l60 0 0 38 c0 53 -10 82 -28 82 -12 0 -14 -9 -9 -45z"/>
</g>
</svg>
